<svg width="1200" height="760" viewBox="0 0 1200 760" fill="none" xmlns="http://www.w3.org/2000/svg">
  <rect width="1200" height="760" fill="#F3EFE7"/>
  <text x="60" y="72" fill="#2A211A" font-family="Georgia, serif" font-size="36" font-weight="700">Timestamped video overview example</text>
  <text x="60" y="108" fill="#655746" font-family="Menlo, monospace" font-size="18">Each tile carries an exact timestamp so the model can ask for precise follow-up frames.</text>
  <rect x="60" y="150" width="1080" height="550" rx="28" fill="#11161C"/>
  <rect x="92" y="182" width="244" height="196" rx="18" fill="#9D6C52"/>
  <rect x="92" y="340" width="244" height="38" rx="0" fill="#000000" fill-opacity="0.72"/>
  <text x="116" y="365" fill="#FFFFFF" font-family="Menlo, monospace" font-size="16">video.mp4 00:00:03.200</text>
  <rect x="356" y="182" width="244" height="196" rx="18" fill="#D0A55F"/>
  <rect x="356" y="340" width="244" height="38" fill="#000000" fill-opacity="0.72"/>
  <text x="380" y="365" fill="#FFFFFF" font-family="Menlo, monospace" font-size="16">video.mp4 00:00:06.400</text>
  <rect x="620" y="182" width="244" height="196" rx="18" fill="#55768D"/>
  <rect x="620" y="340" width="244" height="38" fill="#000000" fill-opacity="0.72"/>
  <text x="644" y="365" fill="#FFFFFF" font-family="Menlo, monospace" font-size="16">video.mp4 00:00:09.600</text>
  <rect x="884" y="182" width="224" height="196" rx="18" fill="#7D5449"/>
  <rect x="884" y="340" width="224" height="38" fill="#000000" fill-opacity="0.72"/>
  <text x="906" y="365" fill="#FFFFFF" font-family="Menlo, monospace" font-size="15">video.mp4 00:00:12.800</text>
  <rect x="92" y="410" width="244" height="196" rx="18" fill="#475F52"/>
  <rect x="92" y="568" width="244" height="38" fill="#000000" fill-opacity="0.72"/>
  <text x="116" y="593" fill="#FFFFFF" font-family="Menlo, monospace" font-size="16">video.mp4 00:00:16.000</text>
  <rect x="356" y="410" width="244" height="196" rx="18" fill="#A54F3C"/>
  <rect x="356" y="568" width="244" height="38" fill="#000000" fill-opacity="0.72"/>
  <text x="380" y="593" fill="#FFFFFF" font-family="Menlo, monospace" font-size="16">video.mp4 00:00:19.200</text>
  <rect x="620" y="410" width="244" height="196" rx="18" fill="#BF7E3B"/>
  <rect x="620" y="568" width="244" height="38" fill="#000000" fill-opacity="0.72"/>
  <text x="644" y="593" fill="#FFFFFF" font-family="Menlo, monospace" font-size="16">video.mp4 00:00:22.400</text>
  <rect x="884" y="410" width="224" height="196" rx="18" fill="#626E8A"/>
  <rect x="884" y="568" width="224" height="38" fill="#000000" fill-opacity="0.72"/>
  <text x="906" y="593" fill="#FFFFFF" font-family="Menlo, monospace" font-size="15">video.mp4 00:00:25.600</text>
</svg>
